<mxfile modified="2020-08-15T05:48:31.915Z" host="app.diagrams.net" agent="5.0 (Windows)" etag="mWGSXmNiO7mIyjydC7yN" version="13.6.2" type="github">
  <diagram id="Ht1M8jgEwFfnCIfOTk4-" name="Page-1">
    <mxGraphModel dx="1038" dy="547" grid="1" gridSize="10" guides="1" tooltips="1" connect="1" arrows="1" fold="1" page="1" pageScale="1" pageWidth="1169" pageHeight="827" math="0" shadow="0">
      <root>
        <mxCell id="0" />
        <mxCell id="1" parent="0" />
        <mxCell id="yUpqm9PoW_Vk6xmLhYno-1" value="" style="rounded=1;whiteSpace=wrap;html=1;" vertex="1" parent="1">
          <mxGeometry x="20" y="10" width="520" height="260" as="geometry" />
        </mxCell>
        <mxCell id="yUpqm9PoW_Vk6xmLhYno-2" value="" style="rounded=1;whiteSpace=wrap;html=1;" vertex="1" parent="1">
          <mxGeometry x="20" y="290" width="520" height="260" as="geometry" />
        </mxCell>
        <mxCell id="yUpqm9PoW_Vk6xmLhYno-3" value="L2 or L3 network" style="rounded=1;whiteSpace=wrap;html=1;rotation=-90;fillColor=#dae8fc;strokeColor=#6c8ebf;" vertex="1" parent="1">
          <mxGeometry x="360" y="257.5" width="465" height="55" as="geometry" />
        </mxCell>
        <mxCell id="yUpqm9PoW_Vk6xmLhYno-4" value="Kube-proxy" style="rounded=0;whiteSpace=wrap;html=1;rotation=-90;fillColor=#fff2cc;strokeColor=#d6b656;" vertex="1" parent="1">
          <mxGeometry x="426.25" y="123.75" width="175" height="32.5" as="geometry" />
        </mxCell>
        <mxCell id="yUpqm9PoW_Vk6xmLhYno-5" value="Kube-proxy" style="rounded=0;whiteSpace=wrap;html=1;rotation=-90;fillColor=#fff2cc;strokeColor=#d6b656;" vertex="1" parent="1">
          <mxGeometry x="426.25" y="397" width="175" height="32.5" as="geometry" />
        </mxCell>
        <mxCell id="yUpqm9PoW_Vk6xmLhYno-7" value="POD-1" style="rounded=1;whiteSpace=wrap;html=1;" vertex="1" parent="1">
          <mxGeometry x="50" y="30" width="120" height="60" as="geometry" />
        </mxCell>
        <mxCell id="yUpqm9PoW_Vk6xmLhYno-10" value="POD-2" style="rounded=1;whiteSpace=wrap;html=1;" vertex="1" parent="1">
          <mxGeometry x="200" y="30" width="120" height="60" as="geometry" />
        </mxCell>
        <mxCell id="yUpqm9PoW_Vk6xmLhYno-11" value="POD-3" style="rounded=1;whiteSpace=wrap;html=1;" vertex="1" parent="1">
          <mxGeometry x="60" y="156.25" width="120" height="63.75" as="geometry" />
        </mxCell>
        <mxCell id="yUpqm9PoW_Vk6xmLhYno-12" value="POD-4" style="rounded=1;whiteSpace=wrap;html=1;" vertex="1" parent="1">
          <mxGeometry x="50" y="337" width="120" height="60" as="geometry" />
        </mxCell>
        <mxCell id="yUpqm9PoW_Vk6xmLhYno-13" value="Bridge" style="rounded=0;whiteSpace=wrap;html=1;fillColor=#f8cecc;strokeColor=#b85450;" vertex="1" parent="1">
          <mxGeometry x="80" y="110" width="230" height="30" as="geometry" />
        </mxCell>
        <mxCell id="yUpqm9PoW_Vk6xmLhYno-15" value="&lt;div&gt;&lt;br&gt;&lt;/div&gt;&lt;div&gt;&lt;br&gt;&lt;/div&gt;&lt;div&gt;&lt;br&gt;&lt;/div&gt;&lt;div&gt;&lt;br&gt;&lt;/div&gt;&lt;div&gt;&lt;br&gt;&lt;/div&gt;&lt;div&gt;&lt;br&gt;&lt;/div&gt;&lt;div&gt;&lt;br&gt;&lt;/div&gt;&lt;div&gt;Service&lt;br&gt;&lt;/div&gt;" style="rounded=1;whiteSpace=wrap;html=1;fillColor=#ffe6cc;strokeColor=#d79b00;" vertex="1" parent="1">
          <mxGeometry x="375" y="65" width="120" height="150" as="geometry" />
        </mxCell>
        <mxCell id="yUpqm9PoW_Vk6xmLhYno-6" value="Http Load balancer" style="rounded=1;whiteSpace=wrap;html=1;" vertex="1" parent="1">
          <mxGeometry x="400" y="100" width="70" height="80" as="geometry" />
        </mxCell>
      </root>
    </mxGraphModel>
  </diagram>
</mxfile>
